<?xml version="1.0" standalone="no"?>
<!DOCTYPE svg PUBLIC "-//W3C//DTD SVG 20010904//EN"
 "http://www.w3.org/TR/2001/REC-SVG-20010904/DTD/svg10.dtd">
<svg version="1.0" xmlns="http://www.w3.org/2000/svg"
 width="1339.000000pt" height="2716.000000pt" viewBox="0 0 1339.000000 2716.000000"
 preserveAspectRatio="xMidYMid meet">

<g transform="translate(0.000000,2716.000000) scale(0.100000,-0.100000)"
fill="#000000" stroke="none">
<path d="M2710 26929 c-377 -10 -618 -39 -868 -104 -585 -154 -1054 -520
-1326 -1036 -137 -260 -222 -555 -261 -909 -25 -222 -32 -639 -31 -1912 l1
-1168 -33 0 c-18 0 -42 -5 -53 -10 -18 -10 -19 -26 -19 -498 0 -366 3 -491 12
-500 7 -7 30 -12 52 -12 l41 0 -3 -454 -2 -455 -33 -3 -32 -3 0 -1010 0 -1010
33 -3 32 -3 0 -269 0 -269 -32 -3 -33 -3 0 -1010 0 -1010 33 -3 32 -3 0 -5937
c1 -5664 2 -6457 15 -6777 19 -477 110 -861 281 -1184 274 -517 742 -883 1326
-1035 245 -64 454 -90 838 -105 339 -14 7582 -14 7981 -1 418 13 631 39 887
106 584 152 1052 518 1326 1035 137 258 223 558 261 907 16 151 35 628 32 822
-1 63 -1 2827 1 6143 l2 6027 23 0 c12 0 28 4 35 8 10 7 12 333 10 1598 l-3
1589 -32 3 -33 3 0 2657 c-1 2590 -4 3236 -15 3492 -21 470 -112 849 -281
1169 -272 516 -742 883 -1326 1035 -278 73 -487 96 -953 106 -454 9 -7541 9
-7885 -1z m8047 -29 c344 -14 548 -41 779 -100 748 -193 1301 -746 1494 -1494
59 -230 85 -432 100 -778 13 -312 13 -21334 0 -21788 -12 -407 -36 -627 -95
-861 -155 -615 -542 -1099 -1090 -1365 -291 -141 -582 -211 -1020 -246 -234
-19 -8226 -19 -8460 0 -437 35 -729 105 -1020 246 -409 198 -733 522 -931 931
-172 357 -235 675 -254 1280 -13 439 -13 21506 0 21810 12 268 31 451 67 625
145 720 574 1261 1217 1534 241 103 497 161 871 198 88 8 1140 13 3985 18
2126 4 3924 5 3995 3 72 -2 234 -8 362 -13z m-10533 -5146 c12 -30 -3 -53 -37
-56 -27 -3 -33 -8 -35 -32 -2 -16 1 -33 7 -39 8 -8 11 -8 11 1 0 22 39 13 45
-10 3 -13 4 -174 3 -358 l-3 -335 -30 0 c-25 -1 -30 -5 -30 -25 0 -21 6 -26
32 -28 33 -3 47 -23 37 -54 -5 -15 -14 -18 -47 -16 l-42 3 -3 470 c-1 259 0
476 3 483 7 19 82 16 89 -4z m1 -1984 c0 -49 -2 -55 -22 -58 -19 -3 -23 -10
-23 -37 0 -25 4 -32 18 -31 16 1 17 -43 17 -789 0 -746 -1 -790 -17 -789 -14
1 -18 -6 -18 -36 0 -32 4 -39 23 -42 20 -3 22 -9 22 -58 0 -45 -3 -55 -18 -58
-49 -10 -47 -47 -47 983 0 529 3 965 7 969 4 4 19 6 33 4 23 -3 25 -7 25 -58z
m12997 -1375 c9 -52 9 -2998 0 -3050 -6 -34 -11 -40 -32 -40 -23 0 -25 4 -28
57 -3 52 -1 57 20 60 19 2 24 10 26 44 3 35 0 42 -15 40 -14 -1 -19 9 -25 49
-8 65 -8 2621 1 2660 5 21 12 29 24 27 15 -3 18 3 15 35 -2 31 -7 39 -25 41
-21 3 -23 9 -23 56 0 59 5 68 34 64 15 -2 23 -13 28 -43z m-12997 -1195 c0
-49 -2 -55 -22 -58 -19 -3 -23 -10 -23 -37 0 -25 4 -32 18 -31 16 1 17 -43 17
-789 0 -746 -1 -790 -17 -789 -14 1 -18 -6 -18 -36 0 -32 4 -39 23 -42 20 -3
22 -9 22 -58 0 -45 -3 -55 -18 -58 -49 -10 -47 -47 -47 983 0 529 3 965 7 969
4 4 19 6 33 4 23 -3 25 -7 25 -58z"/>
<path d="M10255 26788 l5 -28 -3777 0 c-2376 0 -3839 -4 -3943 -10 -435 -26
-738 -95 -1020 -231 -214 -103 -354 -202 -516 -363 -161 -162 -260 -302 -363
-516 -174 -360 -241 -760 -241 -1442 l0 -247 -22 -4 -23 -4 23 -2 22 -1 0
-10357 c0 -5696 -2 -10354 -5 -10352 -2 3 -6 4595 -7 10205 -1 5609 -5 10258
-8 10329 -3 72 -7 -882 -8 -2120 -1 -1237 -4 -2673 -7 -3190 -2 -517 -7 -3005
-10 -5530 -3 -2524 -8 -5740 -11 -7146 -6 -2484 -6 -2557 12 -2568 11 -6 14
-11 8 -11 -8 0 -11 -24 -10 -71 0 -39 -3 -73 -7 -76 -4 -3 -4 -10 2 -17 6 -7
6 -17 1 -26 -20 -31 -3 -506 26 -745 51 -424 162 -740 366 -1043 83 -123 252
-306 373 -403 230 -185 562 -336 882 -403 213 -45 594 -79 829 -75 56 1 107
-1 112 -5 6 -3 13 -2 17 4 6 10 157 15 167 5 10 -10 7570 -5 7738 5 91 6 221
17 290 26 493 61 896 234 1206 516 410 374 618 846 673 1528 18 214 25 564 13
587 -8 14 -8 23 0 31 7 7 8 12 2 12 -6 0 -9 28 -7 72 2 50 -1 74 -10 80 -8 5
-6 8 7 8 18 0 18 67 12 2523 -3 1387 -8 4556 -11 7042 -3 2486 -8 5011 -10
5610 -3 600 -6 2087 -7 3305 -1 1218 -5 2170 -8 2115 -3 -55 -7 -4708 -8
-10339 -1 -5632 -4 -10242 -7 -10244 -3 -3 -5 4657 -5 10356 l0 10361 23 4 22
4 -22 2 -23 1 0 243 c-1 688 -67 1086 -241 1447 -100 207 -208 361 -363 516
-162 161 -303 260 -516 363 -351 170 -761 241 -1391 241 l-205 0 -12 28 -12
27 5 -27z m805 -451 c468 -62 785 -202 1045 -462 295 -295 438 -665 475 -1230
14 -223 14 -21907 0 -22130 -37 -557 -178 -930 -463 -1219 -304 -308 -669
-450 -1254 -486 -115 -8 -1475 -10 -4283 -8 -3880 3 -4123 4 -4250 21 -460 61
-781 201 -1033 450 -278 275 -413 585 -479 1097 -16 130 -25 21981 -8 22255
28 466 113 759 302 1042 125 186 341 378 540 479 218 111 507 181 836 203 64
5 1989 8 4277 7 3929 -1 4167 -2 4295 -19z m-10663 -23524 c-1 -43 -3 -8 -3
77 0 85 2 120 3 78 2 -43 2 -113 0 -155z m12600 0 c-1 -43 -3 -8 -3 77 0 85 2
120 3 78 2 -43 2 -113 0 -155z m-10 -280 c-2 -16 -4 -3 -4 27 0 30 2 43 4 28
2 -16 2 -40 0 -55z m-12580 0 c-2 -16 -4 -5 -4 22 0 28 2 40 4 28 2 -13 2 -35
0 -50z m10 -140 c-3 -10 -5 -4 -5 12 0 17 2 24 5 18 2 -7 2 -21 0 -30z m12560
0 c-3 -10 -5 -4 -5 12 0 17 2 24 5 18 2 -7 2 -21 0 -30z m-12550 -110 c-3 -10
-5 -4 -5 12 0 17 2 24 5 18 2 -7 2 -21 0 -30z m12540 0 c-3 -10 -5 -4 -5 12 0
17 2 24 5 18 2 -7 2 -21 0 -30z m-10 -75 c-3 -7 -5 -2 -5 12 0 14 2 19 5 13 2
-7 2 -19 0 -25z m-12520 0 c-3 -8 -6 -5 -6 6 -1 11 2 17 5 13 3 -3 4 -12 1
-19z m10 -70 c-3 -8 -6 -5 -6 6 -1 11 2 17 5 13 3 -3 4 -12 1 -19z m12500 0
c-3 -8 -6 -5 -6 6 -1 11 2 17 5 13 3 -3 4 -12 1 -19z m-12052 -1018 c10 -11
16 -20 13 -20 -3 0 -13 9 -23 20 -10 11 -16 20 -13 20 3 0 13 -9 23 -20z
m11625 17 c0 -2 -10 -12 -22 -23 l-23 -19 19 23 c18 21 26 27 26 19z m-11515
-137 c33 -33 57 -60 54 -60 -2 0 -31 27 -64 60 -33 33 -57 60 -54 60 2 0 31
-27 64 -60z m11445 57 c0 -1 -28 -29 -62 -62 l-63 -60 60 63 c55 58 65 67 65
59z m-11325 -167 c10 -11 16 -20 13 -20 -3 0 -13 9 -23 20 -10 11 -16 20 -13
20 3 0 13 -9 23 -20z m11165 17 c0 -2 -10 -12 -22 -23 l-23 -19 19 23 c18 21
26 27 26 19z m-10133 -463 c-3 -3 -12 -4 -19 -1 -8 3 -5 6 6 6 11 1 17 -2 13
-5z m9100 0 c-3 -3 -12 -4 -19 -1 -8 3 -5 6 6 6 11 1 17 -2 13 -5z m-8944 -21
c-7 -2 -19 -2 -25 0 -7 3 -2 5 12 5 14 0 19 -2 13 -5z m8790 0 c-7 -2 -19 -2
-25 0 -7 3 -2 5 12 5 14 0 19 -2 13 -5z m-8690 -10 c-7 -2 -21 -2 -30 0 -10 3
-4 5 12 5 17 0 24 -2 18 -5z m8600 0 c-7 -2 -21 -2 -30 0 -10 3 -4 5 12 5 17
0 24 -2 18 -5z m-8445 -10 c-10 -2 -28 -2 -40 0 -13 2 -5 4 17 4 22 1 32 -1
23 -4z m8300 0 c-10 -2 -28 -2 -40 0 -13 2 -5 4 17 4 22 1 32 -1 23 -4z
m-7980 -10 c-32 -2 -84 -2 -115 0 -32 2 -6 3 57 3 63 0 89 -1 58 -3z m7705 0
c-46 -2 -120 -2 -165 0 -46 1 -9 3 82 3 91 0 128 -2 83 -3z"/>
<path d="M10437 26796 c-4 -10 -5 -21 -2 -24 9 -9 17 6 13 25 -3 17 -4 17 -11
-1z"/>
<path d="M2700 26783 c-812 -26 -1317 -208 -1722 -620 -115 -117 -126 -130
-210 -253 -228 -332 -342 -700 -377 -1215 -17 -245 -23 -525 -11 -525 6 0 10
58 10 163 0 836 178 1386 584 1806 328 338 728 526 1270 596 289 38 320 38
4096 42 2032 2 3738 4 3790 6 52 2 -1579 3 -3625 3 -2046 0 -3758 -1 -3805 -3z"/>
<path d="M10485 26780 c-4 -7 36 -10 122 -10 250 0 545 -28 754 -70 574 -116
1032 -430 1317 -902 217 -359 322 -836 322 -1464 0 -108 4 -164 11 -164 19 0
-6 561 -36 775 -20 141 -22 155 -56 295 -64 262 -168 489 -323 710 -77 109
-306 338 -416 416 -349 247 -723 367 -1255 403 -267 18 -433 23 -440 11z"/>
</g>
</svg>
